<svg xmlns="http://www.w3.org/2000/svg" viewBox="0 0 520 470" width="520" height="470"><defs><linearGradient id="bl" x1="0" y1="0" x2="0" y2="1"><stop offset="0" stop-color="#4DA8D0"/><stop offset="1" stop-color="#2E6CA5"/></linearGradient><linearGradient id="gr" x1="0" y1="0" x2="0" y2="1"><stop offset="0" stop-color="#6BC23E"/><stop offset="1" stop-color="#1C5430"/></linearGradient></defs><rect width="520" height="470" fill="#16294F"/><g transform="translate(140,20)"><polygon points="116,34 30,198 100,198 116,150" fill="#ffffff"/><polygon points="116,150 100,198 64,198" fill="#ffffff"/><polygon points="124,34 210,198 140,198 124,150" fill="#ffffff"/><polygon points="124,150 140,198 176,198" fill="#ffffff"/><polygon points="120,150 101,192 120,180" fill="#ffffff"/><polygon points="120,150 139,192 120,180" fill="#ffffff"/></g><g fill="#cfe0f2"><path transform="translate(180.364,300) scale(0.022461,-0.022461)" d="M786 -20Q588 -20 431.5 70.0Q275 160 184.5 331.0Q94 502 94 744Q94 987 185.0 1158.5Q276 1330 433.0 1420.0Q590 1510 786 1510Q913 1510 1022.5 1474.5Q1132 1439 1217.0 1371.0Q1302 1303 1356.0 1204.5Q1410 1106 1427 980H1118Q1108 1042 1079.5 1089.5Q1051 1137 1008.5 1170.5Q966 1204 911.0 1221.5Q856 1239 792 1239Q676 1239 588.5 1181.0Q501 1123 452.5 1012.5Q404 902 404 744Q404 583 453.0 473.0Q502 363 589.0 307.0Q676 251 791 251Q855 251 909.5 268.5Q964 286 1007.5 319.5Q1051 353 1079.5 401.0Q1108 449 1119 510H1428Q1416 406 1366.5 311.0Q1317 216 1235.0 141.0Q1153 66 1040.0 23.0Q927 -20 786 -20Z"/><path transform="translate(230.393,300) scale(0.022461,-0.022461)" d="M440 1490V0H135V1490Z"/><path transform="translate(259.308,300) scale(0.022461,-0.022461)" d="M75 1237V1490H1292V1237H837V0H531V1237Z"/><path transform="translate(306.012,300) scale(0.022461,-0.022461)" d="M601 0V560L49 1490H406L658 1026Q697 956 727 887Q741 855 755 818Q769 856 782 888Q811 957 848 1026L1092 1490H1448L905 560V0Z"/></g><g fill="#ffffff"><path transform="translate(44.741,346) scale(0.014160,-0.014160)" d="M786 -20Q588 -20 431.5 70.0Q275 160 184.5 331.0Q94 502 94 744Q94 987 185.0 1158.5Q276 1330 433.0 1420.0Q590 1510 786 1510Q913 1510 1022.5 1474.5Q1132 1439 1217.0 1371.0Q1302 1303 1356.0 1204.5Q1410 1106 1427 980H1118Q1108 1042 1079.5 1089.5Q1051 1137 1008.5 1170.5Q966 1204 911.0 1221.5Q856 1239 792 1239Q676 1239 588.5 1181.0Q501 1123 452.5 1012.5Q404 902 404 744Q404 583 453.0 473.0Q502 363 589.0 307.0Q676 251 791 251Q855 251 909.5 268.5Q964 286 1007.5 319.5Q1051 353 1079.5 401.0Q1108 449 1119 510H1428Q1416 406 1366.5 311.0Q1317 216 1235.0 141.0Q1153 66 1040.0 23.0Q927 -20 786 -20Z"/><path transform="translate(74.194,346) scale(0.014160,-0.014160)" d="M789 -20Q592 -20 434.5 70.0Q277 160 185.5 331.0Q94 502 94 744Q94 987 185.5 1158.5Q277 1330 434.5 1420.0Q592 1510 789 1510Q987 1510 1144.0 1420.0Q1301 1330 1392.5 1158.5Q1484 987 1484 744Q1484 502 1392.5 331.0Q1301 160 1144.0 70.0Q987 -20 789 -20ZM789 251Q905 251 991.5 307.5Q1078 364 1126.0 474.5Q1174 585 1174 744Q1174 905 1126.0 1015.5Q1078 1126 991.5 1182.5Q905 1239 789 1239Q674 1239 587.0 1182.0Q500 1125 452.0 1014.5Q404 904 404 744Q404 585 452.0 475.0Q500 365 587.0 308.0Q674 251 789 251Z"/><path transform="translate(104.538,346) scale(0.014160,-0.014160)" d="M135 0V1490H603L845 806Q860 758 879.5 682.0Q899 606 919 518Q939 432 956 351Q973 431 992 516Q1012 604 1031.5 681.0Q1051 758 1066 806L1304 1490H1774V0H1467V702Q1467 751 1468.5 824.0Q1470 897 1472.5 981.5Q1475 1066 1477 1152Q1478 1190 1479 1227Q1468 1185 1457 1142Q1434 1053 1410.5 970.0Q1387 887 1366.0 817.5Q1345 748 1330 702L1083 0H826L575 702Q560 748 539.0 816.5Q518 885 494.5 968.0Q471 1051 447 1140Q437 1178 427 1216Q427 1187 428 1156Q430 1071 432.5 985.5Q435 900 436.5 826.5Q438 753 438 702V0Z"/><path transform="translate(139.556,346) scale(0.014160,-0.014160)" d="M135 0V1490H603L845 806Q860 758 879.5 682.0Q899 606 919 518Q939 432 956 351Q973 431 992 516Q1012 604 1031.5 681.0Q1051 758 1066 806L1304 1490H1774V0H1467V702Q1467 751 1468.5 824.0Q1470 897 1472.5 981.5Q1475 1066 1477 1152Q1478 1190 1479 1227Q1468 1185 1457 1142Q1434 1053 1410.5 970.0Q1387 887 1366.0 817.5Q1345 748 1330 702L1083 0H826L575 702Q560 748 539.0 816.5Q518 885 494.5 968.0Q471 1051 447 1140Q437 1178 427 1216Q427 1187 428 1156Q430 1071 432.5 985.5Q435 900 436.5 826.5Q438 753 438 702V0Z"/><path transform="translate(174.573,346) scale(0.014160,-0.014160)" d="M135 0V1490H1132V1237H440V877H1080V628H440V253H1134V0Z"/><path transform="translate(200.189,346) scale(0.014160,-0.014160)" d="M135 0V1490H716Q886 1490 1005.0 1430.0Q1124 1370 1186.5 1261.0Q1249 1152 1249.0 1005.0Q1249 858 1185.5 751.5Q1122 645 1002 589Q993 585 985 581L1302 0H964L679 532H440V0ZM440 779H660Q754 779 814.0 804.5Q874 830 904.0 880.5Q934 931 934 1005Q934 1081 904.0 1132.5Q874 1184 813.5 1211.0Q753 1238 659 1238H440Z"/><path transform="translate(227.234,346) scale(0.014160,-0.014160)" d="M786 -20Q588 -20 431.5 70.0Q275 160 184.5 331.0Q94 502 94 744Q94 987 185.0 1158.5Q276 1330 433.0 1420.0Q590 1510 786 1510Q913 1510 1022.5 1474.5Q1132 1439 1217.0 1371.0Q1302 1303 1356.0 1204.5Q1410 1106 1427 980H1118Q1108 1042 1079.5 1089.5Q1051 1137 1008.5 1170.5Q966 1204 911.0 1221.5Q856 1239 792 1239Q676 1239 588.5 1181.0Q501 1123 452.5 1012.5Q404 902 404 744Q404 583 453.0 473.0Q502 363 589.0 307.0Q676 251 791 251Q855 251 909.5 268.5Q964 286 1007.5 319.5Q1051 353 1079.5 401.0Q1108 449 1119 510H1428Q1416 406 1366.5 311.0Q1317 216 1235.0 141.0Q1153 66 1040.0 23.0Q927 -20 786 -20Z"/><path transform="translate(256.687,346) scale(0.014160,-0.014160)" d="M135 0V1490H1132V1237H440V877H1080V628H440V253H1134V0Z"/><path transform="translate(297.170,346) scale(0.014160,-0.014160)" d="M135 0V1490H1115V1237H440V821H1049V572H440V0Z"/><path transform="translate(322.190,346) scale(0.014160,-0.014160)" d="M440 1490V0H135V1490Z"/><path transform="translate(338.332,346) scale(0.014160,-0.014160)" d="M135 0V1490H475L946 736Q982 678 1019.0 610.0Q1056 542 1095 459Q1114 418 1132 372Q1130 410 1128 449Q1122 543 1118.0 629.0Q1114 715 1114 775V1490H1426V0H1085L657 684Q610 761 570.0 833.5Q530 906 487 994Q460 1047 427 1114Q431 1053 434 996Q440 897 443.5 816.5Q447 736 447 685V0Z"/><path transform="translate(368.436,346) scale(0.014160,-0.014160)" d="M49 0 558 1490H958L1480 0H1141L1026 346H497L386 0ZM947 585 902 719Q859 858 815 1024Q786 1131 755 1250Q725 1129 699 1022Q657 855 616 719L573 585Z"/><path transform="translate(398.087,346) scale(0.014160,-0.014160)" d="M135 0V1490H475L946 736Q982 678 1019.0 610.0Q1056 542 1095 459Q1114 418 1132 372Q1130 410 1128 449Q1122 543 1118.0 629.0Q1114 715 1114 775V1490H1426V0H1085L657 684Q610 761 570.0 833.5Q530 906 487 994Q460 1047 427 1114Q431 1053 434 996Q440 897 443.5 816.5Q447 736 447 685V0Z"/><path transform="translate(428.191,346) scale(0.014160,-0.014160)" d="M786 -20Q588 -20 431.5 70.0Q275 160 184.5 331.0Q94 502 94 744Q94 987 185.0 1158.5Q276 1330 433.0 1420.0Q590 1510 786 1510Q913 1510 1022.5 1474.5Q1132 1439 1217.0 1371.0Q1302 1303 1356.0 1204.5Q1410 1106 1427 980H1118Q1108 1042 1079.5 1089.5Q1051 1137 1008.5 1170.5Q966 1204 911.0 1221.5Q856 1239 792 1239Q676 1239 588.5 1181.0Q501 1123 452.5 1012.5Q404 902 404 744Q404 583 453.0 473.0Q502 363 589.0 307.0Q676 251 791 251Q855 251 909.5 268.5Q964 286 1007.5 319.5Q1051 353 1079.5 401.0Q1108 449 1119 510H1428Q1416 406 1366.5 311.0Q1317 216 1235.0 141.0Q1153 66 1040.0 23.0Q927 -20 786 -20Z"/><path transform="translate(457.644,346) scale(0.014160,-0.014160)" d="M135 0V1490H1132V1237H440V877H1080V628H440V253H1134V0Z"/></g><g fill="#4DA8D0"><path transform="translate(94.066,393) scale(0.023000,-0.023000)" d="M772 831Q800 831 814.0 814.5Q828 798 828 775Q828 749 813.0 729.0Q798 709 774 696Q747 680 706.5 672.0Q666 664 613 664Q572 664 531 668Q528 668 525 669L378 116Q368 79 370.0 58.5Q372 38 391.5 29.5Q411 21 453 20L449 0Q421 2 377.5 2.5Q334 3 288.0 3.0Q242 3 199.5 2.5Q157 2 132 0L136 20Q178 22 201.5 30.5Q225 39 238.5 59.5Q252 80 263 116L414 683Q390 686 366 688Q325 692 288 692Q256 692 224.0 689.0Q192 686 175 675Q189 666 198.0 647.5Q207 629 207 609Q207 585 192.0 564.0Q177 543 148 543Q122 543 108.5 560.0Q95 577 95 602Q95 624 106.5 647.5Q118 671 152 687Q175 698 201.5 703.0Q228 708 251.0 709.0Q274 710 286 710Q346 710 401.0 703.5Q456 697 510.0 690.5Q564 684 620 684Q664 684 694 689Q720 693 742 703Q733 712 724 727Q713 745 713 767Q713 792 728.5 811.5Q744 831 772 831Z"/><path transform="translate(109.384,393) scale(0.023000,-0.023000)" d="M93 0H-12L186 667Q196 701 183.5 717.0Q171 733 122 733L128 754Q189 755 237.0 765.5Q285 776 326 795L182 304Q188 317 194 329Q228 403 261.5 447.0Q295 491 330.5 510.0Q366 529 406 529Q453 529 471.5 507.0Q490 485 489.0 450.0Q488 415 475 378L378 85Q370 59 372.0 43.0Q374 27 393 27Q410 27 427.5 46.0Q445 65 465 121L480 162H499L474 89Q460 47 439.0 25.0Q418 3 394.5 -5.5Q371 -14 349 -14Q306 -14 288.0 5.0Q270 24 272.0 57.5Q274 91 287 132L380 413Q386 429 389.5 447.0Q393 465 388.0 478.0Q383 491 362 491Q339 491 312.0 467.5Q285 444 256.0 401.0Q227 358 199.0 299.0Q171 240 145 169Q136 145 128 121Z"/><path transform="translate(121.965,393) scale(0.023000,-0.023000)" d="M131 218Q122 173 122 130Q122 78 141.5 56.0Q161 34 193 34Q226 34 266.0 54.5Q306 75 345 128L361 120Q341 87 309.0 56.0Q277 25 236.5 5.5Q196 -14 149 -14Q108 -14 76.0 2.0Q44 18 26.5 49.5Q9 81 9.0 127.0Q9 173 25.5 227.5Q42 282 72.5 335.0Q103 388 145.0 432.5Q187 477 239.0 503.0Q291 529 349 529Q385 529 409.0 511.5Q433 494 433 459Q433 419 410.5 384.5Q388 350 350.0 322.0Q312 294 267.5 272.0Q223 250 179 234Q153 225 131 218ZM135 237Q166 249 194 261Q236 280 263 302Q300 333 321.5 375.5Q343 418 343 469Q343 495 339.0 502.5Q335 510 327 510Q303 510 275.5 488.0Q248 466 221.0 427.5Q194 389 171.5 340.5Q149 292 136 238Q135 237 135 237Z"/><path transform="translate(137.973,393) scale(0.023000,-0.023000)" d="M618 602Q628 639 626.5 656.5Q625 674 609.0 680.5Q593 687 559 688L564 708Q589 707 626.0 706.0Q663 705 700 705Q743 705 780.0 706.0Q817 707 841 708L836 688Q802 687 783.0 680.5Q764 674 753.5 656.5Q743 639 733 602L601 106Q592 70 593.0 52.0Q594 34 610.0 28.0Q626 22 660 20L656 0Q633 2 596.0 2.5Q559 3 516 3Q479 3 441.5 2.5Q404 2 379 0L383 20Q417 22 436.0 28.0Q455 34 466.0 52.0Q477 70 486 106L550 346H249L185 106Q176 70 177.0 52.0Q178 34 194.0 28.0Q210 22 244 20L240 0Q216 2 178.5 2.5Q141 3 103 3Q61 3 24.5 2.5Q-12 2 -36 0L-31 20Q2 22 20.5 28.0Q39 34 50.0 52.0Q61 70 70 106L202 602Q212 639 210.0 656.5Q208 674 192.5 680.5Q177 687 143 688L148 708Q170 707 207.5 706.0Q245 705 287 705Q325 705 362.0 706.0Q399 707 425 708L420 688Q386 687 367.0 680.5Q348 674 337.5 656.5Q327 639 317 602L254 366H555Z"/><path transform="translate(155.752,393) scale(0.023000,-0.023000)" d="M313 509Q284 509 256.0 483.0Q228 457 203.5 412.5Q179 368 160.0 313.0Q141 258 130.5 199.0Q120 140 120 87Q120 45 132.5 25.5Q145 6 169 6Q198 6 226.0 32.0Q254 58 279.0 102.0Q304 146 322.5 200.5Q341 255 351.5 314.0Q362 373 362 428Q362 472 350.0 490.5Q338 509 313 509ZM18 146Q18 190 30.0 242.0Q42 294 67.0 345.0Q92 396 127.5 437.5Q163 479 211.5 504.0Q260 529 319 529Q386 529 425.0 489.5Q464 450 464 369Q464 325 452.0 273.0Q440 221 415.0 170.0Q390 119 354.5 77.5Q319 36 270.5 11.0Q222 -14 163 -14Q96 -14 57.0 26.0Q18 66 18 146Z"/><path transform="translate(167.298,393) scale(0.023000,-0.023000)" d="M133 0H28L148 430Q152 440 153.5 453.5Q155 467 152.0 477.5Q149 488 135 488Q114 488 97.0 466.5Q80 445 62 394L47 352H28L53 426Q68 467 89.0 489.0Q110 511 133.5 520.0Q157 529 179 529Q210 529 225.0 516.0Q240 503 243.0 481.5Q246 460 242.0 436.0Q238 412 232 389L202 271Q231 343 258 393Q298 466 340.0 497.5Q382 529 432 529Q465 529 480.5 515.5Q496 502 500.0 479.5Q504 457 500.0 430.5Q496 404 489 378L458 263Q472 298 485 328Q518 401 550.5 445.5Q583 490 617.5 509.5Q652 529 693 529Q735 529 751.5 506.0Q768 483 766.5 449.0Q765 415 753 378L655 85Q645 55 649.0 41.0Q653 27 670.0 27.0Q687 27 705.0 46.0Q723 65 743 121L757 162H776L751 89Q737 47 716.0 25.0Q695 3 671.5 -5.5Q648 -14 626 -14Q599 -14 583.0 -6.0Q567 2 558 16Q545 35 548.5 64.5Q552 94 564 132L658 413Q667 442 667.0 465.5Q667 489 648 489Q621 489 591.0 458.0Q561 427 528.5 368.0Q496 309 463.0 227.0Q430 145 398 43V45L386 0H278L402 413Q408 433 410.5 450.0Q413 467 408.5 478.0Q404 489 387 489Q361 489 330.0 457.0Q299 425 267.0 367.0Q235 309 205 232Q177 163 154 84Z"/><path transform="translate(186.273,393) scale(0.023000,-0.023000)" d="M131 218Q122 173 122 130Q122 78 141.5 56.0Q161 34 193 34Q226 34 266.0 54.5Q306 75 345 128L361 120Q341 87 309.0 56.0Q277 25 236.5 5.5Q196 -14 149 -14Q108 -14 76.0 2.0Q44 18 26.5 49.5Q9 81 9.0 127.0Q9 173 25.5 227.5Q42 282 72.5 335.0Q103 388 145.0 432.5Q187 477 239.0 503.0Q291 529 349 529Q385 529 409.0 511.5Q433 494 433 459Q433 419 410.5 384.5Q388 350 350.0 322.0Q312 294 267.5 272.0Q223 250 179 234Q153 225 131 218ZM135 237Q166 249 194 261Q236 280 263 302Q300 333 321.5 375.5Q343 418 343 469Q343 495 339.0 502.5Q335 510 327 510Q303 510 275.5 488.0Q248 466 221.0 427.5Q194 389 171.5 340.5Q149 292 136 238Q135 237 135 237Z"/><path transform="translate(202.281,393) scale(0.023000,-0.023000)" d="M313 509Q284 509 256.0 483.0Q228 457 203.5 412.5Q179 368 160.0 313.0Q141 258 130.5 199.0Q120 140 120 87Q120 45 132.5 25.5Q145 6 169 6Q198 6 226.0 32.0Q254 58 279.0 102.0Q304 146 322.5 200.5Q341 255 351.5 314.0Q362 373 362 428Q362 472 350.0 490.5Q338 509 313 509ZM18 146Q18 190 30.0 242.0Q42 294 67.0 345.0Q92 396 127.5 437.5Q163 479 211.5 504.0Q260 529 319 529Q386 529 425.0 489.5Q464 450 464 369Q464 325 452.0 273.0Q440 221 415.0 170.0Q390 119 354.5 77.5Q319 36 270.5 11.0Q222 -14 163 -14Q96 -14 57.0 26.0Q18 66 18 146Z"/><path transform="translate(213.827,393) scale(0.023000,-0.023000)" d="M63 495 69 515H157Q177 595 203 648Q228 701 263 733Q288 756 322.5 769.0Q357 782 394 782Q445 782 473.0 759.5Q501 737 501 703Q501 685 491.0 667.5Q481 650 464.5 639.0Q448 628 426 628Q403 628 390.0 638.5Q377 649 378 668Q378 696 395.5 716.5Q413 737 441 746Q440 753 428.5 759.5Q417 766 399.0 766.0Q381 766 367.5 759.0Q354 752 343 742Q327 727 314.5 696.5Q302 666 291.0 626.5Q280 587 269 541L262 515H376L370 495H257L77 -174Q47 -175 20.0 -178.0Q-7 -181 -32 -188L151 495Z"/><path transform="translate(227.213,393) scale(0.023000,-0.023000)" d="M311 366Q343 366 364.0 378.5Q385 391 399.5 411.0Q414 431 424.0 453.0Q434 475 442 494H465Q447 441 440.0 411.5Q433 382 426 356Q421 339 417.0 321.0Q413 303 407.5 279.0Q402 255 395 218H372Q374 241 375.5 263.5Q377 286 372.0 304.5Q367 323 351.5 334.5Q336 346 304 346H249L185 106Q175 70 176.5 52.0Q178 34 194.0 28.5Q210 23 244 23H305Q365 23 402.0 40.0Q439 57 465.5 95.5Q492 134 517 200H540Q535 187 529.0 168.0Q523 149 518 128Q513 109 505.0 73.5Q497 38 492 0Q441 2 377.0 2.5Q313 3 263 3H205Q169 3 127.0 2.5Q85 2 42.5 1.5Q0 1 -38 0L-33 20Q1 22 20.0 28.0Q39 34 49.5 52.0Q60 70 70 106L203 602Q213 639 211.5 656.5Q210 674 194.5 680.5Q179 687 145 688L150 708Q188 707 230.5 706.5Q273 706 315.0 705.5Q357 705 393 705H451Q496 705 551.5 705.5Q607 706 652 708Q639 673 629.0 641.5Q619 610 614 590Q609 572 605.5 555.5Q602 539 600 528H577Q585 587 581.0 621.5Q577 656 553.5 670.5Q530 685 479 685H420Q387 685 368.5 679.5Q350 674 339.0 656.5Q328 639 318 602L255 366Z"/><path transform="translate(241.358,393) scale(0.023000,-0.023000)" d="M134 0H29L149 430Q153 443 155.5 456.5Q158 470 154.0 479.0Q150 488 135 488Q115 488 98.5 468.0Q82 448 63 394L48 352H29L54 426Q76 487 108.5 508.0Q141 529 177 529Q209 529 224.0 516.0Q239 503 242.5 482.5Q246 462 242.5 437.5Q239 413 233 389L200 257Q223 313 245 356Q278 420 310.0 458.0Q342 496 375.5 512.5Q409 529 446 529Q494 529 512.5 507.0Q531 485 529.5 450.5Q528 416 516 378L419 85Q409 58 412.0 42.5Q415 27 434 27Q451 27 468.5 46.0Q486 65 506 121L521 162H540L515 89Q501 47 479.5 25.0Q458 3 434.5 -5.5Q411 -14 389 -14Q364 -14 347.0 -6.0Q330 2 321 16Q309 35 312.0 64.5Q315 94 328 132L421 413Q426 428 429.0 446.0Q432 464 428.0 477.5Q424 491 403 491Q381 491 355.0 469.0Q329 447 300.5 406.5Q272 366 245.0 311.0Q218 256 193 192Q172 137 154 78Z"/><path transform="translate(254.882,393) scale(0.023000,-0.023000)" d="M387 85Q380 62 382.5 44.5Q385 27 404 27Q422 27 438.5 47.0Q455 67 473 121L487 162H506L482 89Q470 49 449.5 26.5Q429 4 405.5 -5.0Q382 -14 361 -14Q300 -14 293 39Q289 56 291.5 79.5Q294 103 303 132L313 170Q296 133 280 105Q243 43 204.0 14.5Q165 -14 118 -14Q87 -14 62.0 0.5Q37 15 23.0 44.5Q9 74 9.0 121.0Q9 168 24.5 223.0Q40 278 68.5 332.0Q97 386 137.5 430.5Q178 475 228.0 502.0Q278 529 336 529Q362 529 381 513Q392 502 397 486L445 667Q454 701 442.0 717.0Q430 733 381 733L387 754Q448 755 494.5 765.5Q541 776 583 795ZM158 24Q180 24 209.0 51.0Q238 78 268.0 126.0Q298 174 325 239Q339 274 351 312L390 460Q385 481 375 492Q361 506 341 506Q307 506 274.0 481.0Q241 456 213.0 413.5Q185 371 163.5 319.0Q142 267 130.0 211.5Q118 156 118 105Q118 64 128.0 44.0Q138 24 158 24Z"/><path transform="translate(267.624,393) scale(0.023000,-0.023000)" d="M115 85Q108 57 111.5 42.0Q115 27 132 27Q149 27 166.0 47.0Q183 67 202 121L217 162H236L211 89Q198 50 178.0 27.5Q158 5 135.0 -4.5Q112 -14 87 -14Q54 -14 37.0 -2.0Q20 10 14.5 31.5Q9 53 12.5 79.0Q16 105 24 132L185 667Q195 701 183.0 717.0Q171 733 122 733L129 754Q189 755 235.5 765.5Q282 776 325 795Z"/><path transform="translate(274.179,393) scale(0.023000,-0.023000)" d="M131 218Q122 173 122 130Q122 78 141.5 56.0Q161 34 193 34Q226 34 266.0 54.5Q306 75 345 128L361 120Q341 87 309.0 56.0Q277 25 236.5 5.5Q196 -14 149 -14Q108 -14 76.0 2.0Q44 18 26.5 49.5Q9 81 9.0 127.0Q9 173 25.5 227.5Q42 282 72.5 335.0Q103 388 145.0 432.5Q187 477 239.0 503.0Q291 529 349 529Q385 529 409.0 511.5Q433 494 433 459Q433 419 410.5 384.5Q388 350 350.0 322.0Q312 294 267.5 272.0Q223 250 179 234Q153 225 131 218ZM135 237Q166 249 194 261Q236 280 263 302Q300 333 321.5 375.5Q343 418 343 469Q343 495 339.0 502.5Q335 510 327 510Q303 510 275.5 488.0Q248 466 221.0 427.5Q194 389 171.5 340.5Q149 292 136 238Q135 237 135 237Z"/><path transform="translate(284.345,393) scale(0.023000,-0.023000)" d="M64 15Q72 11 81.5 8.5Q91 6 108 6Q149 6 176.0 31.5Q203 57 203 104Q203 135 190.5 167.0Q178 199 150 239Q127 273 106.5 306.5Q86 340 86 385Q86 428 107.0 460.0Q128 492 165.5 510.5Q203 529 250 529Q281 529 311.5 521.5Q342 514 362.0 494.0Q382 474 382 436Q382 425 376.5 411.0Q371 397 360.0 387.0Q349 377 331 377Q312 377 299.0 391.0Q286 405 286 427Q286 448 294.0 466.5Q302 485 315 500Q298 510 270 510Q233 510 209.5 486.0Q186 462 186 419Q186 396 193.0 377.5Q200 359 214.0 339.0Q228 319 246 291Q272 250 288.5 215.0Q305 180 305 142Q305 97 281.5 61.5Q258 26 218.0 6.0Q178 -14 127 -14Q91 -14 57.5 -3.5Q24 7 3.0 29.5Q-18 52 -18 91Q-18 109 -7.5 127.0Q3 145 27 145Q52 145 63.5 124.5Q75 104 75 77Q75 57 71.0 42.0Q67 27 64 15Z"/><path transform="translate(293.407,393) scale(0.023000,-0.023000)" d="M64 15Q72 11 81.5 8.5Q91 6 108 6Q149 6 176.0 31.5Q203 57 203 104Q203 135 190.5 167.0Q178 199 150 239Q127 273 106.5 306.5Q86 340 86 385Q86 428 107.0 460.0Q128 492 165.5 510.5Q203 529 250 529Q281 529 311.5 521.5Q342 514 362.0 494.0Q382 474 382 436Q382 425 376.5 411.0Q371 397 360.0 387.0Q349 377 331 377Q312 377 299.0 391.0Q286 405 286 427Q286 448 294.0 466.5Q302 485 315 500Q298 510 270 510Q233 510 209.5 486.0Q186 462 186 419Q186 396 193.0 377.5Q200 359 214.0 339.0Q228 319 246 291Q272 250 288.5 215.0Q305 180 305 142Q305 97 281.5 61.5Q258 26 218.0 6.0Q178 -14 127 -14Q91 -14 57.5 -3.5Q24 7 3.0 29.5Q-18 52 -18 91Q-18 109 -7.5 127.0Q3 145 27 145Q52 145 63.5 124.5Q75 104 75 77Q75 57 71.0 42.0Q67 27 64 15Z"/><path transform="translate(308.311,393) scale(0.023000,-0.023000)" d="M232 284 185 106Q177 76 176.5 57.5Q176 39 190.5 30.0Q205 21 244 20L240 0Q215 2 179.5 2.5Q144 3 106 3Q63 3 25.0 2.5Q-13 2 -36 0L-32 20Q2 22 21.0 28.0Q40 34 51.0 52.0Q62 70 71 106L203 602Q211 634 211.0 652.0Q211 670 196.0 679.0Q181 688 144 688L149 708Q171 707 209.0 706.0Q247 705 284 705Q320 705 356.5 706.0Q393 707 430 707Q537 707 589.0 666.5Q641 626 641 556Q641 478 592.0 416.5Q543 355 455.5 319.5Q368 284 252 284ZM238 304H262Q333 304 382.5 326.0Q432 348 461.5 386.0Q491 424 504.5 472.5Q518 521 518 574Q518 631 491.0 659.5Q464 688 401 688Q375 688 359.5 680.5Q344 673 335.0 654.5Q326 636 317 602Z"/><path transform="translate(322.272,393) scale(0.023000,-0.023000)" d="M313 509Q284 509 256.0 483.0Q228 457 203.5 412.5Q179 368 160.0 313.0Q141 258 130.5 199.0Q120 140 120 87Q120 45 132.5 25.5Q145 6 169 6Q198 6 226.0 32.0Q254 58 279.0 102.0Q304 146 322.5 200.5Q341 255 351.5 314.0Q362 373 362 428Q362 472 350.0 490.5Q338 509 313 509ZM18 146Q18 190 30.0 242.0Q42 294 67.0 345.0Q92 396 127.5 437.5Q163 479 211.5 504.0Q260 529 319 529Q386 529 425.0 489.5Q464 450 464 369Q464 325 452.0 273.0Q440 221 415.0 170.0Q390 119 354.5 77.5Q319 36 270.5 11.0Q222 -14 163 -14Q96 -14 57.0 26.0Q18 66 18 146Z"/><path transform="translate(333.818,393) scale(0.023000,-0.023000)" d="M64 15Q72 11 81.5 8.5Q91 6 108 6Q149 6 176.0 31.5Q203 57 203 104Q203 135 190.5 167.0Q178 199 150 239Q127 273 106.5 306.5Q86 340 86 385Q86 428 107.0 460.0Q128 492 165.5 510.5Q203 529 250 529Q281 529 311.5 521.5Q342 514 362.0 494.0Q382 474 382 436Q382 425 376.5 411.0Q371 397 360.0 387.0Q349 377 331 377Q312 377 299.0 391.0Q286 405 286 427Q286 448 294.0 466.5Q302 485 315 500Q298 510 270 510Q233 510 209.5 486.0Q186 462 186 419Q186 396 193.0 377.5Q200 359 214.0 339.0Q228 319 246 291Q272 250 288.5 215.0Q305 180 305 142Q305 97 281.5 61.5Q258 26 218.0 6.0Q178 -14 127 -14Q91 -14 57.5 -3.5Q24 7 3.0 29.5Q-18 52 -18 91Q-18 109 -7.5 127.0Q3 145 27 145Q52 145 63.5 124.5Q75 104 75 77Q75 57 71.0 42.0Q67 27 64 15Z"/><path transform="translate(342.880,393) scale(0.023000,-0.023000)" d="M64 15Q72 11 81.5 8.5Q91 6 108 6Q149 6 176.0 31.5Q203 57 203 104Q203 135 190.5 167.0Q178 199 150 239Q127 273 106.5 306.5Q86 340 86 385Q86 428 107.0 460.0Q128 492 165.5 510.5Q203 529 250 529Q281 529 311.5 521.5Q342 514 362.0 494.0Q382 474 382 436Q382 425 376.5 411.0Q371 397 360.0 387.0Q349 377 331 377Q312 377 299.0 391.0Q286 405 286 427Q286 448 294.0 466.5Q302 485 315 500Q298 510 270 510Q233 510 209.5 486.0Q186 462 186 419Q186 396 193.0 377.5Q200 359 214.0 339.0Q228 319 246 291Q272 250 288.5 215.0Q305 180 305 142Q305 97 281.5 61.5Q258 26 218.0 6.0Q178 -14 127 -14Q91 -14 57.5 -3.5Q24 7 3.0 29.5Q-18 52 -18 91Q-18 109 -7.5 127.0Q3 145 27 145Q52 145 63.5 124.5Q75 104 75 77Q75 57 71.0 42.0Q67 27 64 15Z"/><path transform="translate(351.942,393) scale(0.023000,-0.023000)" d="M152 430Q166 472 153 484Q148 488 139 488Q117 488 100.0 465.5Q83 443 65 394L49 352H30L56 426Q71 467 92.0 489.0Q113 511 137.5 520.0Q162 529 185 529Q218 529 235.0 516.0Q252 503 256.0 482.0Q260 461 256.0 436.5Q252 412 244 389L138 85Q128 57 132.0 42.0Q136 27 153 27Q171 27 188.0 46.5Q205 66 226 121L242 162H261L235 89Q221 49 200.0 27.0Q179 5 155.5 -4.5Q132 -14 108 -14Q65 -14 47.5 5.5Q30 25 32.0 58.5Q34 92 48 132ZM185 692Q189 724 213.0 744.0Q237 764 268 764Q297 764 313.5 745.5Q330 727 326 700Q322 669 297.5 648.5Q273 628 242 628Q213 628 197.0 646.5Q181 665 185 692Z"/><path transform="translate(359.049,393) scale(0.023000,-0.023000)" d="M100 45Q78 34 56 21Q27 3 0 -16L-15 -9Q-8 5 -3.5 19.5Q1 34 4 49L181 667Q190 701 178.5 717.0Q167 733 118 733L124 754Q184 755 230.5 765.5Q277 776 318 795L193 346Q204 370 215 391Q253 463 291.5 496.0Q330 529 373 529Q424 529 453.5 492.5Q483 456 483 384Q483 338 470.5 284.5Q458 231 433.0 178.5Q408 126 371.5 82.0Q335 38 288.0 12.0Q241 -14 184 -14Q155 -14 132 2Q109 18 100 45ZM335 490Q311 490 281.5 457.0Q252 424 221.5 368.0Q191 312 165 241Q163 238 162 234L112 55Q123 34 136 24Q152 11 174 11Q207 11 237.0 37.0Q267 63 292.5 106.5Q318 150 337.0 203.0Q356 256 366.5 309.5Q377 363 377 409Q377 451 366.0 470.5Q355 490 335 490Z"/><path transform="translate(370.963,393) scale(0.023000,-0.023000)" d="M152 430Q166 472 153 484Q148 488 139 488Q117 488 100.0 465.5Q83 443 65 394L49 352H30L56 426Q71 467 92.0 489.0Q113 511 137.5 520.0Q162 529 185 529Q218 529 235.0 516.0Q252 503 256.0 482.0Q260 461 256.0 436.5Q252 412 244 389L138 85Q128 57 132.0 42.0Q136 27 153 27Q171 27 188.0 46.5Q205 66 226 121L242 162H261L235 89Q221 49 200.0 27.0Q179 5 155.5 -4.5Q132 -14 108 -14Q65 -14 47.5 5.5Q30 25 32.0 58.5Q34 92 48 132ZM185 692Q189 724 213.0 744.0Q237 764 268 764Q297 764 313.5 745.5Q330 727 326 700Q322 669 297.5 648.5Q273 628 242 628Q213 628 197.0 646.5Q181 665 185 692Z"/><path transform="translate(378.071,393) scale(0.023000,-0.023000)" d="M115 85Q108 57 111.5 42.0Q115 27 132 27Q149 27 166.0 47.0Q183 67 202 121L217 162H236L211 89Q198 50 178.0 27.5Q158 5 135.0 -4.5Q112 -14 87 -14Q54 -14 37.0 -2.0Q20 10 14.5 31.5Q9 53 12.5 79.0Q16 105 24 132L185 667Q195 701 183.0 717.0Q171 733 122 733L129 754Q189 755 235.5 765.5Q282 776 325 795Z"/><path transform="translate(384.625,393) scale(0.023000,-0.023000)" d="M152 430Q166 472 153 484Q148 488 139 488Q117 488 100.0 465.5Q83 443 65 394L49 352H30L56 426Q71 467 92.0 489.0Q113 511 137.5 520.0Q162 529 185 529Q218 529 235.0 516.0Q252 503 256.0 482.0Q260 461 256.0 436.5Q252 412 244 389L138 85Q128 57 132.0 42.0Q136 27 153 27Q171 27 188.0 46.5Q205 66 226 121L242 162H261L235 89Q221 49 200.0 27.0Q179 5 155.5 -4.5Q132 -14 108 -14Q65 -14 47.5 5.5Q30 25 32.0 58.5Q34 92 48 132ZM185 692Q189 724 213.0 744.0Q237 764 268 764Q297 764 313.5 745.5Q330 727 326 700Q322 669 297.5 648.5Q273 628 242 628Q213 628 197.0 646.5Q181 665 185 692Z"/><path transform="translate(391.733,393) scale(0.023000,-0.023000)" d="M384 515 381 495H252L135 85Q127 54 139.0 40.5Q151 27 171 27Q193 27 215.0 46.5Q237 66 257 122L271 162H290L269 101Q248 37 212.0 11.5Q176 -14 128 -14Q85 -14 62.5 4.5Q40 23 36.0 56.5Q32 90 44 132L148 495H58L63 515H154L197 666Q227 667 254.5 670.0Q282 673 305 680L258 515Z"/><path transform="translate(399.599,393) scale(0.023000,-0.023000)" d="M152 430Q166 472 153 484Q148 488 139 488Q117 488 100.0 465.5Q83 443 65 394L49 352H30L56 426Q71 467 92.0 489.0Q113 511 137.5 520.0Q162 529 185 529Q218 529 235.0 516.0Q252 503 256.0 482.0Q260 461 256.0 436.5Q252 412 244 389L138 85Q128 57 132.0 42.0Q136 27 153 27Q171 27 188.0 46.5Q205 66 226 121L242 162H261L235 89Q221 49 200.0 27.0Q179 5 155.5 -4.5Q132 -14 108 -14Q65 -14 47.5 5.5Q30 25 32.0 58.5Q34 92 48 132ZM185 692Q189 724 213.0 744.0Q237 764 268 764Q297 764 313.5 745.5Q330 727 326 700Q322 669 297.5 648.5Q273 628 242 628Q213 628 197.0 646.5Q181 665 185 692Z"/><path transform="translate(406.706,393) scale(0.023000,-0.023000)" d="M131 218Q122 173 122 130Q122 78 141.5 56.0Q161 34 193 34Q226 34 266.0 54.5Q306 75 345 128L361 120Q341 87 309.0 56.0Q277 25 236.5 5.5Q196 -14 149 -14Q108 -14 76.0 2.0Q44 18 26.5 49.5Q9 81 9.0 127.0Q9 173 25.5 227.5Q42 282 72.5 335.0Q103 388 145.0 432.5Q187 477 239.0 503.0Q291 529 349 529Q385 529 409.0 511.5Q433 494 433 459Q433 419 410.5 384.5Q388 350 350.0 322.0Q312 294 267.5 272.0Q223 250 179 234Q153 225 131 218ZM135 237Q166 249 194 261Q236 280 263 302Q300 333 321.5 375.5Q343 418 343 469Q343 495 339.0 502.5Q335 510 327 510Q303 510 275.5 488.0Q248 466 221.0 427.5Q194 389 171.5 340.5Q149 292 136 238Q135 237 135 237Z"/><path transform="translate(416.872,393) scale(0.023000,-0.023000)" d="M64 15Q72 11 81.5 8.5Q91 6 108 6Q149 6 176.0 31.5Q203 57 203 104Q203 135 190.5 167.0Q178 199 150 239Q127 273 106.5 306.5Q86 340 86 385Q86 428 107.0 460.0Q128 492 165.5 510.5Q203 529 250 529Q281 529 311.5 521.5Q342 514 362.0 494.0Q382 474 382 436Q382 425 376.5 411.0Q371 397 360.0 387.0Q349 377 331 377Q312 377 299.0 391.0Q286 405 286 427Q286 448 294.0 466.5Q302 485 315 500Q298 510 270 510Q233 510 209.5 486.0Q186 462 186 419Q186 396 193.0 377.5Q200 359 214.0 339.0Q228 319 246 291Q272 250 288.5 215.0Q305 180 305 142Q305 97 281.5 61.5Q258 26 218.0 6.0Q178 -14 127 -14Q91 -14 57.5 -3.5Q24 7 3.0 29.5Q-18 52 -18 91Q-18 109 -7.5 127.0Q3 145 27 145Q52 145 63.5 124.5Q75 104 75 77Q75 57 71.0 42.0Q67 27 64 15Z"/></g></svg>