<svg xmlns="http://www.w3.org/2000/svg" viewBox="0 0 240 240" width="240" height="240">
  <defs>
    <linearGradient id="nbl" x1="0" y1="0" x2="0" y2="1">
      <stop offset="0" stop-color="#4DA8D0"/>
      <stop offset="1" stop-color="#2E6CA5"/>
    </linearGradient>
    <linearGradient id="ngr" x1="0" y1="0" x2="0" y2="1">
      <stop offset="0" stop-color="#6BC23E"/>
      <stop offset="1" stop-color="#1C5430"/>
    </linearGradient>
  </defs>
  <rect width="240" height="240" rx="52" fill="#16294F"/>
  <g transform="translate(26.4,31.1) scale(0.78)">
    <polygon points="116,34 30,198 100,198 116,150" fill="url(#nbl)"/>
    <polygon points="116,150 100,198 64,198" fill="#0F1B2D"/>
    <polygon points="124,34 210,198 140,198 124,150" fill="url(#ngr)"/>
    <polygon points="124,150 140,198 176,198" fill="#1C5430"/>
    <polygon points="120,30 113,150 120,150" fill="#fff"/>
    <polygon points="120,30 120,150 127,150" fill="#fff"/>
    <polygon points="120,150 101,192 120,180" fill="#4DA8D0"/>
    <polygon points="120,150 139,192 120,180" fill="#5DB734"/>
  </g>
</svg>
