<svg xmlns="http://www.w3.org/2000/svg" viewBox="16 16 208 196" width="208" height="196"><defs><linearGradient id="bl" x1="0" y1="0" x2="0" y2="1"><stop offset="0" stop-color="#4DA8D0"/><stop offset="1" stop-color="#2E6CA5"/></linearGradient><linearGradient id="gr" x1="0" y1="0" x2="0" y2="1"><stop offset="0" stop-color="#6BC23E"/><stop offset="1" stop-color="#1C5430"/></linearGradient></defs><polygon points="116,34 30,198 100,198 116,150" fill="url(#bl)"/><polygon points="116,150 100,198 64,198" fill="#16294F"/><polygon points="124,34 210,198 140,198 124,150" fill="url(#gr)"/><polygon points="124,150 140,198 176,198" fill="#1C5430"/><polygon points="120,30 113,150 120,150" fill="#ffffff"/><polygon points="120,30 120,150 127,150" fill="#ffffff"/><polygon points="120,150 101,192 120,180" fill="#4DA8D0"/><polygon points="120,150 139,192 120,180" fill="#5DB734"/></svg>